<svg viewBox="0 0 100 100" xmlns="http://www.w3.org/2000/svg">
  <defs></defs>
  <path fill="#003e27" d="M 2 21.74 C 2.0054999719962243 19.201772118804506 4.061772119763409 17.14550041450999 6.6 17.14 L 55.910000000000004 17.14 L 51.730000000000004 26.34 L 6.6 26.34 C 4.061772119763409 26.33449958549001 2.0054999719962248 24.278227881195495 2 21.740000000000002 L 2 21.74 Z"></path>
  <path fill="#007b4d" d="M 6.6 45.15 L 43.2 45.15 L 47.38 35.95 L 6.6 35.95 C 3.0589183489702947 35.95 0.845742317076728 39.78333333333333 2.6162831425915805 42.85 C 3.4379939993803568 44.27324495308912 4.956578286422446 45.150000000000006 6.6 45.150000000000006 L 6.6 45.15 Z"></path>
  <path fill="#00cd81" d="M 2 59.35 C 2.005499971996225 61.88822788119549 4.061772119763409 63.944499585490014 6.6 63.95 L 34.86 63.95 C 35.36 62.57666666666667 35.916666666666664 61.22 36.53 59.88 L 38.86 54.75 L 6.6 54.75 C 4.061772119763409 54.75550041450999 2.0054999719962243 56.81177211880451 2 59.35 Z"></path>
  <path fill="#99ebcd" d="M 2 78.25 C 2.005499971996225 80.7882278811955 4.061772119763409 82.84449958549001 6.6 82.85 L 31.32 82.85 C 31.376644662630298 79.76392234167099 31.680955533058107 76.68737289517806 32.23 73.64999999999999 L 6.6 73.64999999999999 C 4.061772119763409 73.65550041450997 2.0054999719962243 75.71177211880449 2 78.24999999999999 L 2 78.25 Z"></path>
  <path fill="#00cd81" d="M 92.57 27.28 L 87.48 25 L 89.48 20.63 C 93.60909359052714 12.366591535328713 87.24437501697855 2.732086319536458 78.02350656946228 3.2878906078720984 C 73.42213752508684 3.565246332187591 69.38637344749644 6.453889000245468 67.64 10.719999999999999 L 43.81 63.18 C 39.4543482862819 72.77537509290387 38.21967595401866 83.49568870943561 40.28 93.83 C 40.69315936074623 95.92848249533282 43.04728511589825 96.9985396571107 44.9 95.92999999999999 C 54.036697464249016 90.67607786988947 61.294319707941135 82.6874469259199 65.65 73.08999999999999 L 84 32.71 L 89.06 35 C 89.43953881806628 35.17265424540838 89.60909838009658 35.618863619257624 89.44 36 L 79.59 57.7 C 78.18665363315081 60.655388752491774 80.50886432615779 64.02167372750033 83.76997924729906 63.759312955254444 C 85.33677684619266 63.63326212971197 86.70606423447578 62.652722318056526 87.33 61.21 L 97.17999999999999 39.510000000000005 C 99.26750030467879 34.859236534294254 97.20803651759276 29.395626525985488 92.57 27.280000000000005 L 92.57 27.28 Z"></path>
</svg>
