<svg viewBox="0 0 40 40" fill="none" xmlns="http://www.w3.org/2000/svg">
  <path d="M 14.7 15.254 C 15.553 16.733 14.486 18.58 12.78 18.58 L 2.22 18.58 C 0.514 18.58 -0.553 16.732 0.3 15.254 L 5.58 6.109 C 6.433 4.631 8.567 4.631 9.42 6.109 L 14.7 15.254 Z" fill="#00CD81"></path>
  <path d="M 17.58 27.529 C 18.433 26.051 20.567 26.051 21.42 27.529 L 26.7 36.673 C 27.553 38.151 26.486 39.999 24.78 39.999 L 14.22 39.999 C 12.514 39.999 11.447 38.151 12.3 36.673 L 17.58 27.529 Z" fill="#E6FAF2"></path>
  <path d="M 21.42 12.47 C 20.567 13.948 18.433 13.948 17.58 12.47 L 12.3 3.326 C 11.447 1.848 12.514 0 14.22 0 L 24.78 0 C 26.486 0 27.553 1.848 26.7 3.326 L 21.42 12.47 Z" fill="#007B4D"></path>
  <path d="M 12.78 22 C 14.486 22 15.553 23.848 14.7 25.326 L 9.42 34.472 C 8.567 35.95 6.433 35.95 5.58 34.472 L 0.3 25.326 C -0.553 23.848 0.514 22 2.22 22 L 12.78 22 Z" fill="#99EBCD"></path>
</svg>