<svg viewBox="0 0 40 40" fill="none" xmlns="http://www.w3.org/2000/svg">
  <path d="M 14.7 15.255 C 15.553 16.734 14.486 18.581 12.78 18.581 L 2.22 18.581 C 0.514 18.581 -0.553 16.733 0.3 15.255 L 5.58 6.11 C 6.433 4.632 8.567 4.632 9.42 6.11 L 14.7 15.255 Z" fill="#00CD81"></path>
  <path d="M 17.58 27.53 C 18.433 26.052 20.567 26.052 21.42 27.53 L 26.7 36.674 C 27.553 38.152 26.486 40 24.78 40 L 14.22 40 C 12.514 40 11.447 38.152 12.3 36.674 L 17.58 27.53 Z" fill="#003E27"></path>
  <path d="M 21.42 12.471 C 20.567 13.949 18.433 13.949 17.58 12.471 L 12.3 3.327 C 11.447 1.849 12.514 0.001 14.22 0.001 L 24.78 0.001 C 26.486 0.001 27.553 1.849 26.7 3.327 L 21.42 12.471 Z" fill="#99EBCD"></path>
  <path d="M 12.78 22.001 C 14.486 22.001 15.553 23.849 14.7 25.327 L 9.42 34.473 C 8.567 35.951 6.433 35.951 5.58 34.473 L 0.3 25.327 C -0.553 23.849 0.514 22.001 2.22 22.001 L 12.78 22.001 Z" fill="#007B4D"></path>
</svg>