<svg viewBox="0 0 470 100" xmlns="http://www.w3.org/2000/svg">
  <path d="M 2 21.74 C 2.0054999719962243 19.201772118804506 4.061772119763409 17.14550041450999 6.6 17.14 L 55.910000000000004 17.14 L 51.730000000000004 26.34 L 6.6 26.34 C 4.061772119763409 26.33449958549001 2.0054999719962248 24.278227881195495 2 21.740000000000002 L 2 21.74 Z" style="fill: rgb(0, 123, 77);"></path>
  <path d="M 6.6 45.15 L 43.2 45.15 L 47.38 35.95 L 6.6 35.95 C 3.0589183489702947 35.95 0.845742317076728 39.78333333333333 2.6162831425915805 42.85 C 3.4379939993803568 44.27324495308912 4.956578286422446 45.150000000000006 6.6 45.150000000000006 L 6.6 45.15 Z" style="fill: rgb(0, 205, 129);"></path>
  <path d="M 2 59.35 C 2.005499971996225 61.88822788119549 4.061772119763409 63.944499585490014 6.6 63.95 L 34.86 63.95 C 35.36 62.57666666666667 35.916666666666664 61.22 36.53 59.88 L 38.86 54.75 L 6.6 54.75 C 4.061772119763409 54.75550041450999 2.0054999719962243 56.81177211880451 2 59.35 Z" style="fill: rgb(153, 235, 205);"></path>
  <path d="M 2 78.25 C 2.005499971996225 80.7882278811955 4.061772119763409 82.84449958549001 6.6 82.85 L 31.32 82.85 C 31.376644662630298 79.76392234167099 31.680955533058107 76.68737289517806 32.23 73.64999999999999 L 6.6 73.64999999999999 C 4.061772119763409 73.65550041450997 2.0054999719962243 75.71177211880449 2 78.24999999999999 L 2 78.25 Z" style="fill: rgb(255, 255, 255);"></path>
  <path fill="#00cd81" d="M 92.57 27.28 L 87.48 25 L 89.48 20.63 C 93.60909359052714 12.366591535328713 87.24437501697855 2.732086319536458 78.02350656946228 3.2878906078720984 C 73.42213752508684 3.565246332187591 69.38637344749644 6.453889000245468 67.64 10.719999999999999 L 43.81 63.18 C 39.4543482862819 72.77537509290387 38.21967595401866 83.49568870943561 40.28 93.83 C 40.69315936074623 95.92848249533282 43.04728511589825 96.9985396571107 44.9 95.92999999999999 C 54.036697464249016 90.67607786988947 61.294319707941135 82.6874469259199 65.65 73.08999999999999 L 84 32.71 L 89.06 35 C 89.43953881806628 35.17265424540838 89.60909838009658 35.618863619257624 89.44 36 L 79.59 57.7 C 78.18665363315081 60.655388752491774 80.50886432615779 64.02167372750033 83.76997924729906 63.759312955254444 C 85.33677684619266 63.63326212971197 86.70606423447578 62.652722318056526 87.33 61.21 L 97.17999999999999 39.510000000000005 C 99.26750030467879 34.859236534294254 97.20803651759276 29.395626525985488 92.57 27.280000000000005 L 92.57 27.28 Z"></path>
  <path d="M 139.195 39.845 C 142.155 39.845 144.405 40.465 145.945 41.705 C 147.485 42.945 148.545 44.595 149.125 46.655 C 149.705 48.715 149.995 51.005 149.995 53.525 L 149.995 68.885 C 149.995 69.925 149.655 70.795 148.975 71.495 C 148.295 72.195 147.435 72.545 146.395 72.545 C 145.355 72.545 144.495 72.195 143.815 71.495 C 143.135 70.795 142.795 69.925 142.795 68.885 L 142.795 53.525 C 142.795 52.205 142.625 51.015 142.285 49.955 C 141.945 48.895 141.335 48.045 140.455 47.405 C 139.575 46.765 138.315 46.445 136.675 46.445 C 135.075 46.445 133.725 46.765 132.625 47.405 C 131.525 48.045 130.685 48.895 130.105 49.955 C 129.525 51.015 129.235 52.205 129.235 53.525 L 129.235 68.885 C 129.235 69.925 128.895 70.795 128.215 71.495 C 127.535 72.195 126.675 72.545 125.635 72.545 C 124.595 72.545 123.735 72.195 123.055 71.495 C 122.375 70.795 122.035 69.925 122.035 68.885 L 122.035 44.105 C 122.035 43.065 122.375 42.195 123.055 41.495 C 123.735 40.795 124.595 40.445 125.635 40.445 C 126.675 40.445 127.535 40.795 128.215 41.495 C 128.895 42.195 129.235 43.065 129.235 44.105 L 129.235 46.685 L 128.335 46.505 C 128.695 45.825 129.215 45.095 129.895 44.315 C 130.575 43.535 131.375 42.805 132.295 42.125 C 133.215 41.445 134.255 40.895 135.415 40.475 C 136.575 40.055 137.835 39.845 139.195 39.845 ZM 183.612 40.445 C 184.652 40.445 185.512 40.795 186.192 41.495 C 186.872 42.195 187.212 43.065 187.212 44.105 L 187.212 59.345 C 187.212 63.585 186.032 66.945 183.672 69.425 C 181.312 71.905 177.912 73.145 173.472 73.145 C 169.032 73.145 165.642 71.905 163.302 69.425 C 160.962 66.945 159.792 63.585 159.792 59.345 L 159.792 44.105 C 159.792 43.065 160.132 42.195 160.812 41.495 C 161.492 40.795 162.352 40.445 163.392 40.445 C 164.432 40.445 165.292 40.795 165.972 41.495 C 166.652 42.195 166.992 43.065 166.992 44.105 L 166.992 59.345 C 166.992 61.785 167.532 63.595 168.612 64.775 C 169.692 65.955 171.312 66.545 173.472 66.545 C 175.672 66.545 177.312 65.955 178.392 64.775 C 179.472 63.595 180.012 61.785 180.012 59.345 L 180.012 44.105 C 180.012 43.065 180.352 42.195 181.032 41.495 C 181.712 40.795 182.572 40.445 183.612 40.445 ZM 197.67 40.445 C 198.83 40.445 199.81 40.945 200.61 41.945 L 220.65 66.845 C 221.17 67.485 221.43 68.205 221.43 69.005 C 221.43 70.005 221.05 70.865 220.29 71.585 C 219.53 72.305 218.69 72.665 217.77 72.665 C 216.61 72.665 215.63 72.145 214.83 71.105 L 194.79 46.205 C 194.27 45.565 194.01 44.845 194.01 44.045 C 194.01 43.005 194.38 42.145 195.12 41.465 C 195.86 40.785 196.71 40.445 197.67 40.445 Z M 197.73 72.605 C 196.93 72.605 196.14 72.295 195.36 71.675 C 194.58 71.055 194.19 70.305 194.19 69.425 C 194.19 68.625 194.49 67.865 195.09 67.145 L 204.27 55.925 L 207.87 61.925 L 200.61 71.105 C 199.85 72.105 198.89 72.605 197.73 72.605 Z M 217.71 40.445 C 218.67 40.445 219.48 40.775 220.14 41.435 C 220.8 42.095 221.13 42.845 221.13 43.685 C 221.13 44.085 221.07 44.485 220.95 44.885 C 220.83 45.285 220.61 45.665 220.29 46.025 L 211.23 57.065 L 207.45 51.845 L 214.83 42.065 C 215.63 40.985 216.59 40.445 217.71 40.445 ZM 231.587 41.045 L 245.807 41.045 C 246.767 41.045 247.567 41.365 248.207 42.005 C 248.847 42.645 249.167 43.445 249.167 44.405 C 249.167 45.325 248.847 46.095 248.207 46.715 C 247.567 47.335 246.767 47.645 245.807 47.645 L 231.587 47.645 C 230.627 47.645 229.827 47.325 229.187 46.685 C 228.547 46.045 228.227 45.245 228.227 44.285 C 228.227 43.365 228.547 42.595 229.187 41.975 C 229.827 41.355 230.627 41.045 231.587 41.045 Z M 238.007 33.545 C 239.047 33.545 239.897 33.895 240.557 34.595 C 241.217 35.295 241.547 36.165 241.547 37.205 L 241.547 63.905 C 241.547 64.465 241.657 64.925 241.877 65.285 C 242.097 65.645 242.397 65.905 242.777 66.065 C 243.157 66.225 243.567 66.305 244.007 66.305 C 244.487 66.305 244.927 66.215 245.327 66.035 C 245.727 65.855 246.187 65.765 246.707 65.765 C 247.267 65.765 247.777 66.025 248.237 66.545 C 248.697 67.065 248.927 67.785 248.927 68.705 C 248.927 69.825 248.317 70.745 247.097 71.465 C 245.877 72.185 244.567 72.545 243.167 72.545 C 242.327 72.545 241.397 72.475 240.377 72.335 C 239.357 72.195 238.397 71.855 237.497 71.315 C 236.597 70.775 235.847 69.945 235.247 68.825 C 234.647 67.705 234.347 66.165 234.347 64.205 L 234.347 37.205 C 234.347 36.165 234.697 35.295 235.397 34.595 C 236.097 33.895 236.967 33.545 238.007 33.545 ZM 265.866 44.105 L 265.866 73.145 C 265.866 75.425 265.426 77.395 264.546 79.055 C 263.666 80.715 262.486 82.005 261.006 82.925 C 259.526 83.845 257.866 84.305 256.026 84.305 C 255.026 84.305 254.216 83.975 253.596 83.315 C 252.976 82.655 252.666 81.865 252.666 80.945 L 252.666 80.285 C 252.666 79.405 252.956 78.705 253.536 78.185 C 254.116 77.665 254.846 77.265 255.726 76.985 C 256.686 76.665 257.366 76.215 257.766 75.635 C 258.166 75.055 258.416 74.365 258.516 73.565 C 258.616 72.765 258.666 71.925 258.666 71.045 L 258.666 44.105 C 258.666 43.065 259.006 42.195 259.686 41.495 C 260.366 40.795 261.226 40.445 262.266 40.445 C 263.306 40.445 264.166 40.795 264.846 41.495 C 265.526 42.195 265.866 43.065 265.866 44.105 Z M 262.146 36.545 C 260.786 36.545 259.826 36.325 259.266 35.885 C 258.706 35.445 258.426 34.665 258.426 33.545 L 258.426 32.405 C 258.426 31.245 258.736 30.455 259.356 30.035 C 259.976 29.615 260.926 29.405 262.206 29.405 C 263.606 29.405 264.586 29.625 265.146 30.065 C 265.706 30.505 265.986 31.285 265.986 32.405 L 265.986 33.545 C 265.986 34.705 265.686 35.495 265.086 35.915 C 264.486 36.335 263.506 36.545 262.146 36.545 ZM 274.404 67.565 C 274.004 67.005 273.824 66.285 273.864 65.405 C 273.904 64.525 274.424 63.765 275.424 63.125 C 276.064 62.725 276.744 62.555 277.464 62.615 C 278.184 62.675 278.884 63.045 279.564 63.725 C 280.724 64.885 281.944 65.785 283.224 66.425 C 284.504 67.065 286.104 67.385 288.024 67.385 C 288.624 67.345 289.284 67.255 290.004 67.115 C 290.724 66.975 291.354 66.655 291.894 66.155 C 292.434 65.655 292.704 64.885 292.704 63.845 C 292.704 62.965 292.404 62.265 291.804 61.745 C 291.204 61.225 290.414 60.785 289.434 60.425 C 288.454 60.065 287.364 59.725 286.164 59.405 C 284.924 59.045 283.654 58.645 282.354 58.205 C 281.054 57.765 279.864 57.195 278.784 56.495 C 277.704 55.795 276.824 54.865 276.144 53.705 C 275.464 52.545 275.124 51.085 275.124 49.325 C 275.124 47.325 275.684 45.625 276.804 44.225 C 277.924 42.825 279.374 41.745 281.154 40.985 C 282.934 40.225 284.804 39.845 286.764 39.845 C 288.004 39.845 289.304 39.995 290.664 40.295 C 292.024 40.595 293.324 41.075 294.564 41.735 C 295.804 42.395 296.844 43.265 297.684 44.345 C 298.124 44.945 298.384 45.665 298.464 46.505 C 298.544 47.345 298.164 48.105 297.324 48.785 C 296.724 49.265 296.024 49.475 295.224 49.415 C 294.424 49.355 293.764 49.085 293.244 48.605 C 292.564 47.725 291.654 47.025 290.514 46.505 C 289.374 45.985 288.064 45.725 286.584 45.725 C 285.984 45.725 285.334 45.795 284.634 45.935 C 283.934 46.075 283.324 46.375 282.804 46.835 C 282.284 47.295 282.024 48.025 282.024 49.025 C 282.024 49.945 282.324 50.675 282.924 51.215 C 283.524 51.755 284.334 52.195 285.354 52.535 C 286.374 52.875 287.464 53.205 288.624 53.525 C 289.824 53.845 291.044 54.225 292.284 54.665 C 293.524 55.105 294.664 55.685 295.704 56.405 C 296.744 57.125 297.584 58.055 298.224 59.195 C 298.864 60.335 299.184 61.785 299.184 63.545 C 299.184 65.585 298.584 67.325 297.384 68.765 C 296.184 70.205 294.684 71.295 292.884 72.035 C 291.084 72.775 289.244 73.145 287.364 73.145 C 285.004 73.145 282.644 72.735 280.284 71.915 C 277.924 71.095 275.964 69.645 274.404 67.565 Z" transform="matrix(1, 0, 0, 1, 0, 0)" style="fill: rgb(0, 205, 129); white-space: pre;"></path>
  <path d="M 313.416 72.482 L 312.636 72.482 C 311.476 72.482 310.586 72.172 309.966 71.552 C 309.346 70.932 309.036 70.042 309.036 68.882 L 309.036 67.862 C 309.036 66.702 309.346 65.812 309.966 65.192 C 310.586 64.572 311.476 64.262 312.636 64.262 L 313.416 64.262 C 314.576 64.262 315.466 64.572 316.086 65.192 C 316.706 65.812 317.016 66.702 317.016 67.862 L 317.016 68.882 C 317.016 70.042 316.706 70.932 316.086 71.552 C 315.466 72.172 314.576 72.482 313.416 72.482 Z" transform="matrix(1, 0, 0, 1, 0, 0)" style="fill: rgb(153, 235, 205); white-space: pre;"></path>
  <path d="M 344.889 39.843 C 347.689 39.843 350.199 40.553 352.419 41.973 C 354.639 43.393 356.399 45.343 357.699 47.823 C 358.999 50.303 359.649 53.183 359.649 56.463 C 359.649 59.743 358.999 62.633 357.699 65.133 C 356.399 67.633 354.659 69.593 352.479 71.013 C 350.299 72.433 347.849 73.143 345.129 73.143 C 343.529 73.143 342.029 72.883 340.629 72.363 C 339.229 71.843 337.999 71.183 336.939 70.383 C 335.879 69.583 335.059 68.773 334.479 67.953 C 333.899 67.133 333.609 66.443 333.609 65.883 L 335.469 65.103 L 335.469 69.483 C 335.469 70.523 335.129 71.393 334.449 72.093 C 333.769 72.793 332.909 73.143 331.869 73.143 C 330.829 73.143 329.969 72.803 329.289 72.123 C 328.609 71.443 328.269 70.563 328.269 69.483 L 328.269 31.803 C 328.269 30.763 328.609 29.893 329.289 29.193 C 329.969 28.493 330.829 28.143 331.869 28.143 C 332.909 28.143 333.769 28.493 334.449 29.193 C 335.129 29.893 335.469 30.763 335.469 31.803 L 335.469 47.043 L 334.449 46.503 C 334.449 45.983 334.729 45.353 335.289 44.613 C 335.849 43.873 336.609 43.133 337.569 42.393 C 338.529 41.653 339.639 41.043 340.899 40.563 C 342.159 40.083 343.489 39.843 344.889 39.843 Z M 343.989 46.443 C 342.229 46.443 340.689 46.883 339.369 47.763 C 338.049 48.643 337.019 49.833 336.279 51.333 C 335.539 52.833 335.169 54.543 335.169 56.463 C 335.169 58.343 335.539 60.053 336.279 61.593 C 337.019 63.133 338.049 64.343 339.369 65.223 C 340.689 66.103 342.229 66.543 343.989 66.543 C 345.749 66.543 347.279 66.103 348.579 65.223 C 349.879 64.343 350.899 63.133 351.639 61.593 C 352.379 60.053 352.749 58.343 352.749 56.463 C 352.749 54.543 352.379 52.833 351.639 51.333 C 350.899 49.833 349.879 48.643 348.579 47.763 C 347.279 46.883 345.749 46.443 343.989 46.443 ZM 375.446 31.803 L 375.446 68.883 C 375.446 69.923 375.096 70.793 374.396 71.493 C 373.696 72.193 372.826 72.543 371.786 72.543 C 370.786 72.543 369.946 72.193 369.266 71.493 C 368.586 70.793 368.246 69.923 368.246 68.883 L 368.246 31.803 C 368.246 30.763 368.596 29.893 369.296 29.193 C 369.996 28.493 370.866 28.143 371.906 28.143 C 372.946 28.143 373.796 28.493 374.456 29.193 C 375.116 29.893 375.446 30.763 375.446 31.803 ZM 416.085 56.523 C 416.085 59.803 415.355 62.693 413.895 65.193 C 412.435 67.693 410.475 69.643 408.015 71.043 C 405.555 72.443 402.805 73.143 399.765 73.143 C 396.725 73.143 393.975 72.443 391.515 71.043 C 389.055 69.643 387.095 67.693 385.635 65.193 C 384.175 62.693 383.445 59.803 383.445 56.523 C 383.445 53.243 384.175 50.353 385.635 47.853 C 387.095 45.353 389.055 43.393 391.515 41.973 C 393.975 40.553 396.725 39.843 399.765 39.843 C 402.805 39.843 405.555 40.553 408.015 41.973 C 410.475 43.393 412.435 45.353 413.895 47.853 C 415.355 50.353 416.085 53.243 416.085 56.523 Z M 408.885 56.523 C 408.885 54.483 408.475 52.713 407.655 51.213 C 406.835 49.713 405.735 48.543 404.355 47.703 C 402.975 46.863 401.445 46.443 399.765 46.443 C 398.085 46.443 396.555 46.863 395.175 47.703 C 393.795 48.543 392.695 49.713 391.875 51.213 C 391.055 52.713 390.645 54.483 390.645 56.523 C 390.645 58.523 391.055 60.273 391.875 61.773 C 392.695 63.273 393.795 64.443 395.175 65.283 C 396.555 66.123 398.085 66.543 399.765 66.543 C 401.445 66.543 402.975 66.123 404.355 65.283 C 405.735 64.443 406.835 63.273 407.655 61.773 C 408.475 60.273 408.885 58.523 408.885 56.523 ZM 437.102 39.843 C 438.782 39.843 440.322 40.103 441.722 40.623 C 443.122 41.143 444.332 41.803 445.352 42.603 C 446.372 43.403 447.172 44.213 447.752 45.033 C 448.332 45.853 448.622 46.543 448.622 47.103 L 447.062 47.883 L 447.062 43.503 C 447.062 42.463 447.402 41.593 448.082 40.893 C 448.762 40.193 449.622 39.843 450.662 39.843 C 451.702 39.843 452.562 40.183 453.242 40.863 C 453.922 41.543 454.262 42.423 454.262 43.503 L 454.262 70.203 C 454.262 73.683 453.512 76.473 452.012 78.573 C 450.512 80.673 448.542 82.193 446.102 83.133 C 443.662 84.073 441.042 84.543 438.242 84.543 C 437.442 84.543 436.402 84.443 435.122 84.243 C 433.842 84.043 432.622 83.803 431.462 83.523 C 430.302 83.243 429.422 82.983 428.822 82.743 C 427.622 82.223 426.792 81.573 426.332 80.793 C 425.872 80.013 425.782 79.183 426.062 78.303 C 426.422 77.143 427.002 76.353 427.802 75.933 C 428.602 75.513 429.442 75.463 430.322 75.783 C 430.722 75.903 431.382 76.143 432.302 76.503 C 433.222 76.863 434.232 77.193 435.332 77.493 C 436.432 77.793 437.402 77.943 438.242 77.943 C 441.242 77.943 443.462 77.343 444.902 76.143 C 446.342 74.943 447.062 73.283 447.062 71.163 L 447.062 65.943 L 447.782 66.483 C 447.782 67.003 447.512 67.633 446.972 68.373 C 446.432 69.113 445.692 69.843 444.752 70.563 C 443.812 71.283 442.702 71.893 441.422 72.393 C 440.142 72.893 438.782 73.143 437.342 73.143 C 434.502 73.143 431.942 72.433 429.662 71.013 C 427.382 69.593 425.582 67.633 424.262 65.133 C 422.942 62.633 422.282 59.763 422.282 56.523 C 422.282 53.243 422.942 50.353 424.262 47.853 C 425.582 45.353 427.362 43.393 429.602 41.973 C 431.842 40.553 434.342 39.843 437.102 39.843 Z M 438.242 46.443 C 436.442 46.443 434.862 46.883 433.502 47.763 C 432.142 48.643 431.082 49.843 430.322 51.363 C 429.562 52.883 429.182 54.603 429.182 56.523 C 429.182 58.403 429.562 60.103 430.322 61.623 C 431.082 63.143 432.142 64.343 433.502 65.223 C 434.862 66.103 436.442 66.543 438.242 66.543 C 440.082 66.543 441.682 66.103 443.042 65.223 C 444.402 64.343 445.462 63.143 446.222 61.623 C 446.982 60.103 447.362 58.403 447.362 56.523 C 447.362 54.603 446.982 52.883 446.222 51.363 C 445.462 49.843 444.402 48.643 443.042 47.763 C 441.682 46.883 440.082 46.443 438.242 46.443 Z" transform="matrix(1, 0, 0, 1, 0, 0)" style="fill: rgb(255, 255, 255); white-space: pre;"></path>
</svg>
